# xmcd
#
# Track frame offsets:
#	150
#	11957
#	22997
#	36315
#	50735
#	60707
#	72835
#	81360
#	92360
#	102087
#	115470
#	127257
#	139612
#	151392
#	171145
#	183252
#	193680
#	206585
#	219335
#	233285
#	243955
#
# Disc length: 3386
#
# Revision: 3
# Processed by: cddbd v1.5.1PL0 Copyright (c) Steve Scherf et al.
# Submitted via: OrangeCD 5.1
# Normalized: r2:DSETVAR1
#
DISCID=210d3815
DTITLE=Various Artist - Country Music's Golden Hit Parade [CD 1)
DYEAR=1992
DGENRE=Country
TTITLE0=Jim Reeves - Welcome To My World
TTITLE1=The Everly Brothers - Devoted To You
TTITLE2=Tammy Wynette - D.I.V.O.R.C.E
TTITLE3=Glen Campbell - Rhinestone Cowboy
TTITLE4=Ray Stevens - Turn Your Radio On
TTITLE5=Dolly Parton - Nine To Five
TTITLE6=Roger Miller - England Swings
TTITLE7=The Statler Brothers - Bed Of Rose's
TTITLE8=Floyd Cramer - On The Rebound
TTITLE9=Charley Pride - All His Children
TTITLE10=Tom T. Hall - Pamela Brown
TTITLE11=Charlie Rich - The Most Beautiful Girl
TTITLE12=Tennessee Ernie Ford - Sixteen Tons
TTITLE13=Kenny Rogers - Coward Of The County
TTITLE14=Tammy Wynette - Stand By Your Man
TTITLE15=Frank Ifield - Lovesick Blues
TTITLE16=Jim Reeves - Distant Drums
TTITLE17=Roy Orbison - It's Over
TTITLE18=Tom Jones - Green Green Grass Of Home
TTITLE19=The Everly Brothers - All I Have To Do Is Dream
TTITLE20=Conway Twitty - It's Only Make Believe
EXTD=
EXTT0=Jim Reeves
EXTT1=The Everly Brothers
EXTT2=Tammy Wynette
EXTT3=Glen Campbell
EXTT4=Ray Stevens
EXTT5=Dolly Parton
EXTT6=Roger Miller
EXTT7=The Salter Brothers
EXTT8=Floyd Cramer
EXTT9=Charley Pride
EXTT10=Tom T Hall
EXTT11=Charlie Rich
EXTT12=Tennessee Ernie Ford
EXTT13=Kenny Rogers
EXTT14=Tammy Wynette
EXTT15=Frank Ifield
EXTT16=Jim Reeves
EXTT17=Roy Orbison
EXTT18=Tom Jones
EXTT19=Everly Brothers
EXTT20=Conway Twitty
PLAYORDER=
